<svg width="640" height="480" xmlns="http://www.w3.org/2000/svg">
 <!-- Created with SVG-edit - http://svg-edit.googlecode.com/ -->

 <g>
  <title>Layer 1</title>
  <path stroke="#000000" d="m133,170c1,0 3,0 5,0c1,0 3,0 4,0c1,0 3,0 5,0c1,0 2,0 3,0c1,0 3,-1 6,-1c3,0 6,0 6,0c2,0 3.053497,0.459503 5,0c2.176254,-0.513748 4,-1 5,-1c1,0 3,0 6,0c4,0 6,0 7,0c1,0 1,-1 3,-1c1,0 3,0 5,0c2,0 4,0 5,0c2,0 4,0 5,0c2,0 4,0 5,0c2,0 3,0 5,0c2,0 3,0 4,0c1,0 2,0 2,0c1,0 2,0 3,0c2,0 3,0 5,0c1,0 2,0 4,0c1,0 3,0 4,0c1,0 3,0 5,0c2,0 2,0 4,0c4,0 7,0 9,0c1,0 2,0 3,0c2,0 4,0 7,0c3,0 4,0 5,0c2,0 6,0 9,0l2,0" id="svg_1" stroke-width="5" fill="none"/>
  <path d="m134,172c0,1 0.486252,2.823746 1,5c0.689255,2.919754 -0.160187,6.012909 0,7c0.506546,3.121445 1,6 1,8c0,2 0,4 0,6c0,2 0,5 0,7c0,1 -1,3 -1,4c0,1 -0.458801,3.693436 -1,5c-0.765366,1.847763 -0.486252,3.823746 -1,6c-0.459503,1.946503 -1.486252,3.823746 -2,6c-0.689255,2.919754 -1,5 -1,8c0,2 0,3 0,6c0,1 0,2 0,3c0,1 0,2 0,3c0,1 1,2 1,5c0,1 0,3 0,6c0,2 0,3 0,4c0,1 1,2 1,3c0,2 0,4 0,5c0,2 0,3 0,4c0,3 0,6 0,8c0,3 0,5 0,7c0,2 0,4 0,6c0,1 0,3 0,4c0,1 0,2 0,2c0,2 0,4 0,6c0,2 0,3 0,4c0,1 0,3 0,4c0,2 0,4 0,5c0,1 0,2 0,3c0,1 0,2 0,3c0,3 0,4 0,5c0,2 0,3 0,3l0,1l0,1" id="svg_2" stroke-linecap="null" stroke-linejoin="null" stroke-dasharray="null" stroke-width="5" stroke="#000000" fill="none"/>
  <path d="m279,168c0,2 0.51944,4.038742 1,7c0.506531,3.121445 1,7 1,10c0,2 0,5 0,9c0,2 0,5 0,8c0,2 0.48056,4.038742 0,7c-0.506531,3.121445 -2,7 -2,9c0,3 -0.31073,5.080246 -1,8c-0.513733,2.176254 -1.486267,4.823746 -2,7c-0.68927,2.919754 0,4 0,6c0,2 0,4 0,5c0,1 0,2 0,3c0,1 1,3 1,4c0,1 1,3 1,6c0,2 1,4 1,6c0,1 0.493469,3.878571 1,7c0.320374,1.974182 -0.48056,4.038727 0,7c0.506531,3.121429 1,5 1,9c0,3 0,5 0,8c0,3 0,5 0,7c0,2 0,4 0,6c0,1 1,3 1,4c0,2 0,4 0,5c0,2 0,5 0,7c0,2 0,3 0,4c0,1 0,2 0,3c0,1 0,2 -1,4l0,1" id="svg_3" stroke-linecap="null" stroke-linejoin="null" stroke-dasharray="null" stroke-width="5" stroke="#000000" fill="none"/>
  <path d="m133,336c0,1 1,1 1,1c1,0 2.097885,0.824432 4,2c0.850647,0.525726 3.01947,0.605835 7,1c5.074203,0.502441 12.020447,1.505127 18,2c6.062042,0.501709 9,1 13,1c4,0 8,1 12,1c4,0 5,1 10,1c7,0 13,1 16,1c3,0 5.907791,0.496216 10,1c4.96254,0.610931 11,1 16,1c4,0 8,0 11,0c5,0 8,0 11,0c2,0 4,0 6,0c2,0 4.152252,-0.234619 6,-1c1.306549,-0.541199 2,-2 3,-2c1,0 1.585785,0.414215 3,-1c0.707092,-0.707092 1.186005,-1.692535 3,-3c1.147278,-0.826904 2.458801,-1.693451 3,-3c0.38269,-0.923889 1,-3 1,-4l0,-1l-1,-1" id="svg_4" stroke-linecap="null" stroke-linejoin="null" stroke-dasharray="null" stroke-width="5" stroke="#000000" fill="none"/>
  <path d="m279,168c0,1 1,1 2,1c3,0 8.19577,-1.648865 12,-4c4.253265,-2.628662 7,-6 11,-9c4,-3 10.072784,-7.881897 15,-11c6.093445,-3.856125 12.072784,-7.881897 17,-11c6.093445,-3.856125 10.702515,-7.563499 16,-10c5.745941,-2.642761 9.412079,-3.968552 13,-6c3.691956,-2.090347 5.934143,-5.144295 8,-6c2.92157,-1.210152 4.881531,-2.190277 8,-4c1.93399,-1.122345 4,-1 4,-2l0,-1l1,0" id="svg_5" stroke-linecap="null" stroke-linejoin="null" stroke-dasharray="null" stroke-width="5" stroke="#000000" fill="none"/>
  <path d="m284,335c0,1 2,1 5,-1c3,-2 6.625305,-6.413605 11,-10c2.78833,-2.285889 7.718994,-5.310211 11,-8c2.78833,-2.285889 8,-5 14,-9c6,-4 12.746735,-8.371338 17,-11c3.80423,-2.351135 7.918304,-4.112152 12,-7c2.943359,-2.082458 8.21167,-2.714111 11,-5c3.281006,-2.689789 4.323669,-4.520172 6,-6c2.703003,-2.386169 4.613831,-3.296997 7,-6c1.479828,-1.676331 2.692535,-3.186005 4,-5c1.653809,-2.294525 5.613831,-3.296997 8,-6c1.479828,-1.676331 3.186005,-4.692535 5,-6c2.294525,-1.653809 5.458801,-3.693436 6,-5c0.38269,-0.923874 -0.414215,-1.585785 1,-3c0.707092,-0.707108 1.076111,0.38269 2,0c2.613129,-1.082397 6,-3 9,-4l2,-2l2,-1" id="svg_6" stroke-linecap="null" stroke-linejoin="null" stroke-dasharray="null" stroke-width="5" stroke="#000000" fill="none"/>
  <path d="m386,106c0,1 0,2 0,3c0,1 0,2 0,4c0,4 0,6 0,10c0,4 0.496216,6.907791 1,11c0.366547,2.977524 0.789856,6.07843 2,9c0.855713,2.065857 1.51944,4.038742 2,7c0.506531,3.121445 2,6 4,10c2,4 3,7 4,10c1,3 1.359283,5.051651 2,9c0.506531,3.121445 0.51944,7.038742 1,10c0.506531,3.121445 1.493469,4.878555 2,8c0.48056,2.961258 0.486267,5.823746 1,8c0.68927,2.919754 1,6 1,9c0,2 1,6 1,9c0,2 0.486267,3.823746 1,6c0.229767,0.973251 -0.765381,2.152237 0,4c0.541199,1.306564 1,2 1,4c0,1 1,1 1,3c0,1 0,2 1,3l0,1" id="svg_7" stroke-linecap="null" stroke-linejoin="null" stroke-dasharray="null" stroke-width="5" stroke="#000000" fill="none"/>
  <path stroke="#000000" d="m136,169.005005c1.146347,0 2.341873,0.278503 3.439026,0c3.955856,-1.004196 5.595871,-4.027283 9.170731,-5.766617c4.434036,-2.157379 6.663284,-4.043182 9.170731,-5.766617c3.196381,-2.196976 6.319778,-4.415314 8.024399,-6.727737c1.905792,-2.585358 2.561646,-4.951843 3.439011,-6.727722c1.240814,-2.51149 3.77948,-4.434372 6.878067,-6.727737c1.921646,-1.422272 5.97435,-2.608551 9.170731,-4.805511c2.507431,-1.72345 7.39444,-4.27739 10.317078,-6.727737c2.922592,-2.45034 4.23291,-4.023186 5.731689,-5.766617c0.947906,-1.102654 3.087585,-2.363167 4.585358,-2.883316c1.059082,-0.367798 1.146347,-0.961105 2.292694,-1.922203c1.146347,-0.961113 1.940247,-3.062088 3.439026,-4.805519c1.895828,-2.205299 3.652252,-2.58783 5.731705,-3.844421c1.315155,-0.794746 2.292679,-1.922211 2.292679,-2.883316c0,0 0.213242,-0.665611 2.292694,-1.922203c3.94548,-2.384224 4.585358,-3.844414 5.731705,-4.805519l0,-0.961105l1.146332,0l1.146347,-0.961105" id="svg_8" stroke-linecap="null" stroke-linejoin="null" stroke-dasharray="null" stroke-width="5" fill="none"/>
  <path d="m388,107c-1,0 -5,0 -12,0c-12,0 -23.946716,-0.498741 -31,-1c-4.987427,-0.354446 -13.866943,-0.544197 -21,-2c-7.899414,-1.612213 -14.925781,-1.497551 -20,-2c-6.965942,-0.689766 -11,0 -15,0c-5,0 -9,-1 -15,-1c-4,0 -6.907776,-0.496223 -11,-1c-1.985016,-0.24437 -5,0 -6,0c-3,0 -5,0 -6,0c-2,0 -4,0 -5,0c-1,0 -2,-1 -3,-1c-2,0 -2.292892,-0.292892 -3,-1c-0.707108,-0.707108 -1.292892,-0.292892 -2,-1c-1.414215,-1.414215 -3,0 -5,0c0,0 0,-1 -2,-1l-2,0" id="svg_9" stroke-linecap="null" stroke-linejoin="null" stroke-dasharray="null" stroke-width="5" stroke="#000000" fill="none"/>
  <path d="m283,333c-1,1 -1,2 -1,3c0,2 -1,3 -1,4c0,2 -1,2 -1,3l0,3" id="svg_10" stroke-linecap="null" stroke-linejoin="null" stroke-dasharray="null" stroke-width="5" stroke="#000000" fill="none"/>
  <text stroke="#000000" transform="matrix(1 0 0 1 0 0)" xml:space="preserve" text-anchor="middle" font-family="serif" font-size="0.001" id="svg_11" y="243" x="147" stroke-linecap="null" stroke-linejoin="null" stroke-dasharray="null" stroke-width="0" fill="#000000"/>
  <text stroke="#000000" transform="matrix(1 0 0 1 0 0)" xml:space="preserve" text-anchor="middle" font-family="serif" font-size="45" id="svg_14" y="279" x="141" stroke-linecap="null" stroke-linejoin="null" stroke-dasharray="null" stroke-width="0" fill="#000000"/>
  <text xml:space="preserve" text-anchor="middle" font-family="serif" font-size="63" id="svg_18" y="244" x="204" stroke-linecap="null" stroke-linejoin="null" stroke-dasharray="null" stroke-width="0" stroke="#000000" fill="#000000">BIG</text>
  <text xml:space="preserve" text-anchor="middle" font-family="serif" font-size="63" id="svg_19" y="315" x="207" stroke-linecap="null" stroke-linejoin="null" stroke-dasharray="null" stroke-width="0" stroke="#000000" fill="#000000">FAT</text>
  <text stroke="#000000" transform="matrix(0.973214 0 0 1.0813 6.66072 -11.8902)" xml:space="preserve" text-anchor="middle" font-family="serif" font-size="63" id="svg_21" y="235.398496" x="342" stroke-linecap="null" stroke-linejoin="null" stroke-dasharray="null" stroke-width="0" fill="#000000">Box</text>
 </g>
</svg>
